<svg xmlns="http://www.w3.org/2000/svg" width="521" height="316" viewBox="0 0 521 316" role="img" aria-label="The hallway with a sofa S, a half-disk of radius 1, in its horizontal side (dashed outline); the translate S + c(0), where a motion of Baek's paper starts, against the inner corner O (solid); the arrow c(0) between them; and the sofa halfway through that motion, turned by π/4 about O (faint)">
<title>The hallway with a sofa S, a half-disk of radius 1, in its horizontal side (dashed outline); the translate S + c(0), where a motion of Baek's paper starts, against the inner corner O (solid); the arrow c(0) between them; and the sofa halfway through that motion, turned by π/4 about O (faint)</title>
<defs><marker id="arrow" viewBox="0 0 10 10" refX="9" refY="5" markerUnits="userSpaceOnUse" markerWidth="11" markerHeight="11" orient="auto-start-reverse"><path d="M 0 0 L 10 5 L 0 10 z" fill="#1f2937"/></marker></defs>
<rect width="100%" height="100%" fill="#ffffff"/>
<polygon points="18.0,153.0 373.0,153.0 373.0,298.0 473.0,298.0 473.0,53.0 18.0,53.0" fill="#f3f4f6" stroke="none" stroke-width="0" fill-opacity="1" stroke-linejoin="round"/>
<polyline points="18.0,53.0 473.0,53.0 473.0,298.0" fill="none" stroke="#374151" stroke-width="2.6" stroke-linejoin="round" stroke-linecap="round"/>
<polyline points="18.0,153.0 373.0,153.0 373.0,298.0" fill="none" stroke="#374151" stroke-width="2.6" stroke-linejoin="round" stroke-linecap="round"/>
<polygon points="443.7,223.7 446.2,221.2 448.5,218.5 450.8,215.8 453.0,213.1 455.0,210.2 457.0,207.3 458.9,204.3 460.6,201.2 462.3,198.1 463.8,194.9 465.2,191.7 466.5,188.4 467.7,185.1 468.8,181.7 469.7,178.3 470.6,174.9 471.3,171.4 471.9,167.9 472.3,164.4 472.7,160.9 472.9,157.4 473.0,153.9 473.0,150.4 472.8,146.8 472.5,143.3 472.1,139.8 471.6,136.3 470.9,132.8 470.2,129.4 469.3,126.0 468.3,122.6 467.1,119.3 465.9,116.0 464.5,112.7 463.0,109.5 461.5,106.3 459.7,103.3 457.9,100.2 456.0,97.3 454.0,94.4 451.9,91.5 449.7,88.8 447.4,86.1 444.9,83.5 442.5,81.1 439.9,78.6 437.2,76.3 434.5,74.1 431.6,72.0 428.7,70.0 425.8,68.1 422.7,66.3 419.7,64.5 416.5,63.0 413.3,61.5 410.0,60.1 406.7,58.9 403.4,57.7 400.0,56.7 396.6,55.8 393.2,55.1 389.7,54.4 386.2,53.9 382.7,53.5 379.2,53.2 375.6,53.0 372.1,53.0 368.6,53.1 365.1,53.3 361.6,53.7 358.1,54.1 354.6,54.7 351.1,55.4 347.7,56.3 344.3,57.2 340.9,58.3 337.6,59.5 334.3,60.8 331.1,62.2 327.9,63.7 324.8,65.4 321.7,67.1 318.7,69.0 315.8,71.0 312.9,73.0 310.2,75.2 307.5,77.5 304.8,79.8 302.3,82.3" fill="#dbeafe" stroke="#2563eb" stroke-width="1.2" fill-opacity="0.4" stroke-linejoin="round" stroke-dasharray="5 4" stroke-opacity="0.55"/>
<polygon points="253.0,153.0 252.9,149.5 252.8,145.9 252.4,142.4 252.0,138.9 251.4,135.4 250.8,132.0 250.0,128.5 249.0,125.1 248.0,121.8 246.8,118.4 245.6,115.1 244.2,111.9 242.7,108.7 241.0,105.6 239.3,102.5 237.5,99.5 235.5,96.5 233.5,93.7 231.3,90.8 229.1,88.1 226.8,85.5 224.3,82.9 221.8,80.4 219.2,78.1 216.5,75.8 213.8,73.6 210.9,71.5 208.0,69.5 205.0,67.6 202.0,65.8 198.9,64.1 195.7,62.6 192.5,61.1 189.2,59.8 185.9,58.6 182.6,57.5 179.2,56.5 175.7,55.6 172.3,54.9 168.8,54.3 165.3,53.8 161.8,53.4 158.3,53.1 154.8,53.0 151.2,53.0 147.7,53.1 144.2,53.4 140.7,53.8 137.2,54.3 133.7,54.9 130.3,55.6 126.8,56.5 123.4,57.5 120.1,58.6 116.8,59.8 113.5,61.1 110.3,62.6 107.1,64.1 104.0,65.8 101.0,67.6 98.0,69.5 95.1,71.5 92.2,73.6 89.5,75.8 86.8,78.1 84.2,80.4 81.7,82.9 79.2,85.5 76.9,88.1 74.7,90.8 72.5,93.7 70.5,96.5 68.5,99.5 66.7,102.5 65.0,105.6 63.3,108.7 61.8,111.9 60.4,115.1 59.2,118.4 58.0,121.8 57.0,125.1 56.0,128.5 55.2,132.0 54.6,135.4 54.0,138.9 53.6,142.4 53.2,145.9 53.1,149.5 53.0,153.0" fill="none" stroke="#2563eb" stroke-width="1.6" fill-opacity="1" stroke-linejoin="round" stroke-dasharray="6 4"/>
<polygon points="473.0,153.0 472.9,149.5 472.8,145.9 472.4,142.4 472.0,138.9 471.4,135.4 470.8,132.0 470.0,128.5 469.0,125.1 468.0,121.8 466.8,118.4 465.6,115.1 464.2,111.9 462.7,108.7 461.0,105.6 459.3,102.5 457.5,99.5 455.5,96.5 453.5,93.7 451.3,90.8 449.1,88.1 446.8,85.5 444.3,82.9 441.8,80.4 439.2,78.1 436.5,75.8 433.8,73.6 430.9,71.5 428.0,69.5 425.0,67.6 422.0,65.8 418.9,64.1 415.7,62.6 412.5,61.1 409.2,59.8 405.9,58.6 402.6,57.5 399.2,56.5 395.7,55.6 392.3,54.9 388.8,54.3 385.3,53.8 381.8,53.4 378.3,53.1 374.8,53.0 371.2,53.0 367.7,53.1 364.2,53.4 360.7,53.8 357.2,54.3 353.7,54.9 350.3,55.6 346.8,56.5 343.4,57.5 340.1,58.6 336.8,59.8 333.5,61.1 330.3,62.6 327.1,64.1 324.0,65.8 321.0,67.6 318.0,69.5 315.1,71.5 312.2,73.6 309.5,75.8 306.8,78.1 304.2,80.4 301.7,82.9 299.2,85.5 296.9,88.1 294.7,90.8 292.5,93.7 290.5,96.5 288.5,99.5 286.7,102.5 285.0,105.6 283.3,108.7 281.8,111.9 280.4,115.1 279.2,118.4 278.0,121.8 277.0,125.1 276.0,128.5 275.2,132.0 274.6,135.4 274.0,138.9 273.6,142.4 273.2,145.9 273.1,149.5 273.0,153.0" fill="#dbeafe" stroke="#2563eb" stroke-width="1.8" fill-opacity="0.9" stroke-linejoin="round"/>
<line x1="153.0" y1="111.0" x2="365.0" y2="111.0" stroke="#1f2937" stroke-width="1.5" stroke-linecap="round" marker-end="url(#arrow)"/>
<text x="263.0" y="95.0" font-size="15" font-family="Georgia, 'Times New Roman', serif" fill="#1f2937" text-anchor="middle" dominant-baseline="middle" font-style="italic">c(0)</text>
<circle cx="153.0" cy="111.0" r="2.6" fill="#1f2937"/>
<text x="153.0" y="138.0" font-size="16" font-family="Georgia, 'Times New Roman', serif" fill="#2563eb" text-anchor="middle" dominant-baseline="middle" font-style="italic">S</text>
<text x="411.0" y="138.0" font-size="15" font-family="Georgia, 'Times New Roman', serif" fill="#2563eb" text-anchor="middle" dominant-baseline="middle" font-style="italic">S + c(0)</text>
<text x="423.0" y="273.0" font-size="15" font-family="Georgia, 'Times New Roman', serif" fill="#2563eb" text-anchor="middle" dominant-baseline="middle" font-style="italic">Φ<tspan dy="4.5" font-size="10.2">1/2</tspan><tspan dy="-4.5">(S)</tspan></text>
<text x="43.0" y="103.0" font-size="15" font-family="Georgia, 'Times New Roman', serif" fill="#374151" text-anchor="middle" dominant-baseline="middle" font-style="italic">H<tspan dy="4.5" font-size="10.2">L</tspan></text>
<circle cx="373.0" cy="153.0" r="2.6" fill="#1f2937"/>
<text x="358.0" y="168.0" font-size="14" font-family="Georgia, 'Times New Roman', serif" fill="#1f2937" text-anchor="middle" dominant-baseline="middle" font-style="italic">O</text>
</svg>
